<?xml version="1.0" encoding="utf-8"?>
<!-- Generator: Adobe Illustrator 18.1.1, SVG Export Plug-In . SVG Version: 6.00 Build 0)  -->
<!DOCTYPE svg PUBLIC "-//W3C//DTD SVG 1.1//EN" "http://www.w3.org/Graphics/SVG/1.1/DTD/svg11.dtd">
<svg version="1.1" id="Layer_1" xmlns="http://www.w3.org/2000/svg" xmlns:xlink="http://www.w3.org/1999/xlink" x="0px" y="0px"
	 viewBox="0 0 225 97.7" enable-background="new 0 0 225 97.7" xml:space="preserve">
<g>
	<path fill="#FFFFFF" d="M149.8,34c1.6,2,3.2,4.8,3.2,8.8c0,9.7-7.6,15.3-18.5,15.3c-2.8,0-5.3-0.3-6.9-0.8l-2.9,4.6l8.5,0.5
		c15.1,1,23.9,1.4,23.9,13c0,10-8.8,15.7-23.9,15.7c-15.8,0-21.8-4-21.8-10.9c0-3.9,1.7-6,4.8-8.9c-2.9-1.2-3.8-3.4-3.8-5.7
		c0-1.9,1-3.7,2.5-5.3c1.6-1.7,3.3-3.3,5.4-5.2c-4.3-2.1-7.5-6.6-7.5-13.1c0-10,6.6-16.9,19.9-16.9c3.7,0,6,0.3,8,0.9h17v7.4
		L149.8,34z M124.1,73.7c-1.1,1.4-2.3,2.9-2.3,4.6c0,3.5,4.4,4.5,10.5,4.5c5,0,11.9-0.4,11.9-5c0-2.8-3.3-3-7.5-3.2L124.1,73.7z
		 M133.6,33.8c-4.8,0-8.4,2.4-8.4,8c0,4.3,2.4,7.2,8.1,7.2c4.9,0,8.2-2.9,8.2-7.4C141.6,36.5,138.6,33.8,133.6,33.8z"/>
	<path fill="#FFFFFF" d="M161.9,70.5v-6.9l4.4-0.6c1.2-0.2,1.4-0.4,1.4-1.7V35.7c0-1-0.3-1.6-1.1-1.8l-4.7-1.7l1-7h18v36.1
		c0,1.4,0.1,1.6,1.4,1.7l4.4,0.6v6.9H161.9z M173.1,18.2c-5,0-7.8-2.9-7.8-7.8c0-5,2.9-7.7,7.8-7.7c5,0,7.9,2.7,7.9,7.7
		C181.1,15.3,178.2,18.2,173.1,18.2z"/>
	<path fill="#FFFFFF" d="M221.1,67.1c-3.7,1.8-9.2,3.5-14.2,3.5c-10.4,0-14.3-4.2-14.3-14V33.8c0-0.5,0-0.9-0.7-0.9h-6.1v-7.7
		c7.7-0.9,10.7-4.7,11.7-14.2h8.3v12.4c0,0.6,0,0.9,0.7,0.9h12.3v8.7h-13v20.8c0,5.1,1.2,7.1,5.9,7.1c2.4,0,5-0.6,7-1.4L221.1,67.1z
		"/>
	<g>
		<path fill="#FFFFFF" d="M92.2,44.3L52.4,4.5c-2.3-2.3-6-2.3-8.3,0l-8.3,8.3l10.5,10.5c2.4-0.8,5.2-0.3,7.2,1.7
			c2,2,2.5,4.8,1.7,7.2l10.1,10.1c2.4-0.8,5.3-0.3,7.2,1.7c2.7,2.7,2.7,7.1,0,9.9c-2.7,2.7-7.1,2.7-9.9,0c-2.1-2.1-2.6-5.1-1.5-7.6
			l-9.4-9.4l0,24.8c0.7,0.3,1.3,0.8,1.8,1.3c2.7,2.7,2.7,7.1,0,9.9c-2.7,2.7-7.2,2.7-9.9,0c-2.7-2.7-2.7-7.2,0-9.9
			c0.7-0.7,1.5-1.2,2.3-1.5v-25c-0.8-0.3-1.6-0.8-2.3-1.5c-2.1-2.1-2.6-5.1-1.5-7.6L31.8,16.8L4.5,44.1c-2.3,2.3-2.3,6,0,8.3
			l39.8,39.8c2.3,2.3,6,2.3,8.3,0l39.6-39.6C94.5,50.3,94.5,46.6,92.2,44.3z"/>
	</g>
</g>
</svg>
